<mxfile host="drawio-plugin" modified="2023-03-01T06:13:56.150Z" agent="5.0 (Macintosh; Intel Mac OS X 13_0_0) AppleWebKit/537.36 (KHTML, like Gecko) Chrome/89.0.4389.114 Safari/537.36" version="20.5.3" etag="yBuzGM56za7Sz_yBQKr6" type="embed"><diagram id="3_yLLhRxxLugh_Py-nJ_" name="Page-1"><mxGraphModel dx="995" dy="1007" grid="1" gridSize="10" guides="1" tooltips="1" connect="1" arrows="1" fold="1" page="1" pageScale="1" pageWidth="850" pageHeight="1100" math="0" shadow="0"><root><mxCell id="0"/><mxCell id="1" parent="0"/><mxCell id="3" value="" style="ellipse;whiteSpace=wrap;html=1;aspect=fixed;fillStyle=solid;fillColor=#000000;" vertex="1" parent="1"><mxGeometry x="230" y="90" width="40" height="40" as="geometry"/></mxCell><mxCell id="6" value="Active" style="rounded=1;whiteSpace=wrap;html=1;fillStyle=solid;fillColor=default;fontStyle=2" vertex="1" parent="1"><mxGeometry x="190" y="220" width="120" height="60" as="geometry"/></mxCell><mxCell id="8" style="edgeStyle=orthogonalEdgeStyle;rounded=0;orthogonalLoop=1;jettySize=auto;html=1;entryX=0.5;entryY=0;entryDx=0;entryDy=0;" edge="1" parent="1" source="7" target="6"><mxGeometry relative="1" as="geometry"/></mxCell><mxCell id="11" value="the group and its funding have begun" style="edgeLabel;html=1;align=center;verticalAlign=middle;resizable=0;points=[];" vertex="1" connectable="0" parent="8"><mxGeometry x="0.0571" y="1" relative="1" as="geometry"><mxPoint x="-1" y="-12" as="offset"/></mxGeometry></mxCell><mxCell id="7" value="Nonexistent" style="text;html=1;align=center;verticalAlign=middle;resizable=0;points=[];autosize=1;strokeColor=none;fillColor=none;fontStyle=2" vertex="1" parent="1"><mxGeometry x="205" y="130" width="90" height="30" as="geometry"/></mxCell><mxCell id="16" value="" style="edgeStyle=orthogonalEdgeStyle;rounded=0;orthogonalLoop=1;jettySize=auto;html=1;" edge="1" parent="1" source="15" target="6"><mxGeometry relative="1" as="geometry"/></mxCell><mxCell id="17" value="Yes" style="edgeLabel;html=1;align=center;verticalAlign=middle;resizable=0;points=[];" vertex="1" connectable="0" parent="16"><mxGeometry x="-0.45" y="2" relative="1" as="geometry"><mxPoint as="offset"/></mxGeometry></mxCell><mxCell id="19" value="" style="edgeStyle=orthogonalEdgeStyle;rounded=0;orthogonalLoop=1;jettySize=auto;html=1;" edge="1" parent="1" source="15" target="18"><mxGeometry relative="1" as="geometry"/></mxCell><mxCell id="20" value="No" style="edgeLabel;html=1;align=center;verticalAlign=middle;resizable=0;points=[];" vertex="1" connectable="0" parent="19"><mxGeometry x="-0.25" y="-3" relative="1" as="geometry"><mxPoint x="3" as="offset"/></mxGeometry></mxCell><mxCell id="15" value="Within expiry?" style="rhombus;whiteSpace=wrap;html=1;fillStyle=solid;fillColor=default;" vertex="1" parent="1"><mxGeometry x="200" y="320" width="100" height="60" as="geometry"/></mxCell><mxCell id="22" style="edgeStyle=orthogonalEdgeStyle;rounded=0;orthogonalLoop=1;jettySize=auto;html=1;entryX=0.5;entryY=0;entryDx=0;entryDy=0;" edge="1" parent="1" source="18" target="21"><mxGeometry relative="1" as="geometry"/></mxCell><mxCell id="23" value="Yes" style="edgeLabel;html=1;align=center;verticalAlign=middle;resizable=0;points=[];" vertex="1" connectable="0" parent="22"><mxGeometry x="0.2" y="-4" relative="1" as="geometry"><mxPoint x="9" y="4" as="offset"/></mxGeometry></mxCell><mxCell id="25" style="edgeStyle=orthogonalEdgeStyle;rounded=0;orthogonalLoop=1;jettySize=auto;html=1;entryX=0.5;entryY=0;entryDx=0;entryDy=0;" edge="1" parent="1" source="18" target="24"><mxGeometry relative="1" as="geometry"/></mxCell><mxCell id="26" value="No" style="edgeLabel;html=1;align=center;verticalAlign=middle;resizable=0;points=[];" vertex="1" connectable="0" parent="25"><mxGeometry x="-0.0571" y="-1" relative="1" as="geometry"><mxPoint as="offset"/></mxGeometry></mxCell><mxCell id="18" value="Target bought?" style="rhombus;whiteSpace=wrap;html=1;fillStyle=solid;fillColor=default;" vertex="1" parent="1"><mxGeometry x="200" y="420" width="100" height="60" as="geometry"/></mxCell><mxCell id="21" value="Won" style="rounded=1;whiteSpace=wrap;html=1;fillStyle=solid;fillColor=default;" vertex="1" parent="1"><mxGeometry x="110" y="540" width="120" height="60" as="geometry"/></mxCell><mxCell id="24" value="Lost" style="rounded=1;whiteSpace=wrap;html=1;fillStyle=solid;fillColor=default;" vertex="1" parent="1"><mxGeometry x="270" y="540" width="120" height="60" as="geometry"/></mxCell><mxCell id="27" value="UsingCryptoPunksGroupRegistryStructs.GroupLifeCycle" style="text;html=1;align=center;verticalAlign=middle;resizable=0;points=[];autosize=1;strokeColor=none;fillColor=none;fillStyle=solid;fontStyle=1;fontSize=13;" vertex="1" parent="1"><mxGeometry x="70" y="40" width="380" height="30" as="geometry"/></mxCell><mxCell id="28" value="" style="ellipse;whiteSpace=wrap;html=1;aspect=fixed;fillStyle=solid;fillColor=#000000;" vertex="1" parent="1"><mxGeometry x="680" y="740" width="40" height="40" as="geometry"/></mxCell><mxCell id="47" value="" style="edgeStyle=orthogonalEdgeStyle;rounded=0;orthogonalLoop=1;jettySize=auto;html=1;fontSize=13;" edge="1" parent="1" source="29" target="46"><mxGeometry relative="1" as="geometry"/></mxCell><mxCell id="48" value="designed with a preset and set the reserve price proposal" style="edgeLabel;html=1;align=center;verticalAlign=middle;resizable=0;points=[];fontSize=13;" vertex="1" connectable="0" parent="47"><mxGeometry x="-0.1" y="1" relative="1" as="geometry"><mxPoint as="offset"/></mxGeometry></mxCell><mxCell id="29" value="Raw" style="rounded=1;whiteSpace=wrap;html=1;fillStyle=solid;fillColor=default;fontStyle=2" vertex="1" parent="1"><mxGeometry x="640" y="850" width="120" height="60" as="geometry"/></mxCell><mxCell id="30" style="edgeStyle=orthogonalEdgeStyle;rounded=0;orthogonalLoop=1;jettySize=auto;html=1;entryX=0.5;entryY=0;entryDx=0;entryDy=0;exitX=0.5;exitY=1;exitDx=0;exitDy=0;" edge="1" parent="1" source="28" target="29"><mxGeometry relative="1" as="geometry"><mxPoint x="700" y="810" as="sourcePoint"/></mxGeometry></mxCell><mxCell id="31" value="Minted" style="edgeLabel;html=1;align=center;verticalAlign=middle;resizable=0;points=[];fontSize=12;" vertex="1" connectable="0" parent="30"><mxGeometry x="0.0571" y="1" relative="1" as="geometry"><mxPoint x="-1" y="-12" as="offset"/></mxGeometry></mxCell><mxCell id="45" value="UsingCryptoPunksMosaicRegistryStructs.MonoLifeCycle" style="text;html=1;align=center;verticalAlign=middle;resizable=0;points=[];autosize=1;strokeColor=none;fillColor=none;fillStyle=solid;fontStyle=1;fontSize=13;" vertex="1" parent="1"><mxGeometry x="520" y="690" width="380" height="30" as="geometry"/></mxCell><mxCell id="50" value="" style="edgeStyle=orthogonalEdgeStyle;rounded=0;orthogonalLoop=1;jettySize=auto;html=1;fontSize=13;" edge="1" parent="1" source="46" target="49"><mxGeometry relative="1" as="geometry"/></mxCell><mxCell id="51" value="the original has been sold and/or reconstituted" style="edgeLabel;html=1;align=center;verticalAlign=middle;resizable=0;points=[];fontSize=13;" vertex="1" connectable="0" parent="50"><mxGeometry y="-2" relative="1" as="geometry"><mxPoint as="offset"/></mxGeometry></mxCell><mxCell id="46" value="Active" style="rounded=1;whiteSpace=wrap;html=1;fillStyle=solid;fillColor=default;fontStyle=2;fontSize=13;" vertex="1" parent="1"><mxGeometry x="640" y="990" width="120" height="60" as="geometry"/></mxCell><mxCell id="49" value="Dead" style="rounded=1;whiteSpace=wrap;html=1;fillStyle=solid;fillColor=default;fontStyle=2;fontSize=13;" vertex="1" parent="1"><mxGeometry x="640" y="1130" width="120" height="60" as="geometry"/></mxCell><mxCell id="52" value="" style="ellipse;whiteSpace=wrap;html=1;aspect=fixed;fillStyle=solid;fillColor=#FFFFFF;" vertex="1" parent="1"><mxGeometry x="240" y="740" width="40" height="40" as="geometry"/></mxCell><mxCell id="53" value="Proposed" style="rounded=1;whiteSpace=wrap;html=1;fillStyle=solid;fillColor=default;fontStyle=2" vertex="1" parent="1"><mxGeometry x="200" y="850" width="120" height="60" as="geometry"/></mxCell><mxCell id="54" style="edgeStyle=orthogonalEdgeStyle;rounded=0;orthogonalLoop=1;jettySize=auto;html=1;entryX=0.5;entryY=0;entryDx=0;entryDy=0;exitX=0.5;exitY=1;exitDx=0;exitDy=0;" edge="1" parent="1" source="52" target="53"><mxGeometry relative="1" as="geometry"><mxPoint x="260" y="810" as="sourcePoint"/></mxGeometry></mxCell><mxCell id="55" value="the bid has been proposed successfully,&lt;br&gt;with the bidder depositing the fund" style="edgeLabel;html=1;align=center;verticalAlign=middle;resizable=0;points=[];fontSize=12;" vertex="1" connectable="0" parent="54"><mxGeometry x="0.0571" y="1" relative="1" as="geometry"><mxPoint x="-1" y="-7" as="offset"/></mxGeometry></mxCell><mxCell id="57" value="" style="edgeStyle=orthogonalEdgeStyle;rounded=0;orthogonalLoop=1;jettySize=auto;html=1;" edge="1" parent="1" source="61" target="53"><mxGeometry relative="1" as="geometry"/></mxCell><mxCell id="58" value="No" style="edgeLabel;html=1;align=center;verticalAlign=middle;resizable=0;points=[];" vertex="1" connectable="0" parent="57"><mxGeometry x="-0.45" y="2" relative="1" as="geometry"><mxPoint as="offset"/></mxGeometry></mxCell><mxCell id="59" value="" style="edgeStyle=orthogonalEdgeStyle;rounded=0;orthogonalLoop=1;jettySize=auto;html=1;" edge="1" parent="1" source="61" target="66"><mxGeometry relative="1" as="geometry"/></mxCell><mxCell id="60" value="Yes" style="edgeLabel;html=1;align=center;verticalAlign=middle;resizable=0;points=[];" vertex="1" connectable="0" parent="59"><mxGeometry x="-0.25" y="-3" relative="1" as="geometry"><mxPoint x="3" as="offset"/></mxGeometry></mxCell><mxCell id="61" value="Vote finalized?" style="rhombus;whiteSpace=wrap;html=1;fillStyle=solid;fillColor=default;" vertex="1" parent="1"><mxGeometry x="210" y="960" width="100" height="60" as="geometry"/></mxCell><mxCell id="62" style="edgeStyle=orthogonalEdgeStyle;rounded=0;orthogonalLoop=1;jettySize=auto;html=1;entryX=0.5;entryY=0;entryDx=0;entryDy=0;" edge="1" parent="1" source="66" target="67"><mxGeometry relative="1" as="geometry"/></mxCell><mxCell id="63" value="Yes" style="edgeLabel;html=1;align=center;verticalAlign=middle;resizable=0;points=[];" vertex="1" connectable="0" parent="62"><mxGeometry x="0.2" y="-4" relative="1" as="geometry"><mxPoint x="9" y="4" as="offset"/></mxGeometry></mxCell><mxCell id="64" style="edgeStyle=orthogonalEdgeStyle;rounded=0;orthogonalLoop=1;jettySize=auto;html=1;entryX=0.5;entryY=0;entryDx=0;entryDy=0;" edge="1" parent="1" source="66" target="68"><mxGeometry relative="1" as="geometry"/></mxCell><mxCell id="65" value="No" style="edgeLabel;html=1;align=center;verticalAlign=middle;resizable=0;points=[];" vertex="1" connectable="0" parent="64"><mxGeometry x="-0.0571" y="-1" relative="1" as="geometry"><mxPoint as="offset"/></mxGeometry></mxCell><mxCell id="66" value="Won the majority vote?" style="rhombus;whiteSpace=wrap;html=1;fillStyle=solid;fillColor=default;" vertex="1" parent="1"><mxGeometry x="180" y="1070" width="160" height="70" as="geometry"/></mxCell><mxCell id="74" style="edgeStyle=orthogonalEdgeStyle;rounded=0;orthogonalLoop=1;jettySize=auto;html=1;entryX=0.5;entryY=0;entryDx=0;entryDy=0;fontSize=12;" edge="1" parent="1" source="67" target="73"><mxGeometry relative="1" as="geometry"/></mxCell><mxCell id="75" value="the bidder has claimed&lt;br&gt;the reconstituted Original" style="edgeLabel;html=1;align=center;verticalAlign=middle;resizable=0;points=[];fontSize=12;" vertex="1" connectable="0" parent="74"><mxGeometry y="1" relative="1" as="geometry"><mxPoint as="offset"/></mxGeometry></mxCell><mxCell id="67" value="Accepted" style="rounded=1;whiteSpace=wrap;html=1;fillStyle=solid;fillColor=default;fontStyle=2" vertex="1" parent="1"><mxGeometry x="120" y="1220" width="120" height="60" as="geometry"/></mxCell><mxCell id="71" value="" style="edgeStyle=orthogonalEdgeStyle;rounded=0;orthogonalLoop=1;jettySize=auto;html=1;fontSize=13;" edge="1" parent="1" source="68" target="70"><mxGeometry relative="1" as="geometry"/></mxCell><mxCell id="72" value="the bidder has reclaimed &lt;br&gt;the despotied fund" style="edgeLabel;html=1;align=center;verticalAlign=middle;resizable=0;points=[];fontSize=12;" vertex="1" connectable="0" parent="71"><mxGeometry x="-0.025" y="-1" relative="1" as="geometry"><mxPoint x="1" y="2" as="offset"/></mxGeometry></mxCell><mxCell id="68" value="Rejected" style="rounded=1;whiteSpace=wrap;html=1;fillStyle=solid;fillColor=default;fontStyle=2" vertex="1" parent="1"><mxGeometry x="280" y="1220" width="120" height="60" as="geometry"/></mxCell><mxCell id="69" value="UsingCryptoPunksMosaicRegistryStructs.BidState" style="text;html=1;align=center;verticalAlign=middle;resizable=0;points=[];autosize=1;strokeColor=none;fillColor=none;fillStyle=solid;fontStyle=1;fontSize=13;" vertex="1" parent="1"><mxGeometry x="100" y="690" width="340" height="30" as="geometry"/></mxCell><mxCell id="77" style="edgeStyle=orthogonalEdgeStyle;rounded=0;orthogonalLoop=1;jettySize=auto;html=1;entryX=1.008;entryY=0.467;entryDx=0;entryDy=0;entryPerimeter=0;fontSize=12;" edge="1" parent="1" source="70" target="76"><mxGeometry relative="1" as="geometry"><Array as="points"><mxPoint x="460" y="1380"/><mxPoint x="460" y="759"/></Array></mxGeometry></mxCell><mxCell id="70" value="Refunded" style="rounded=1;whiteSpace=wrap;html=1;fillStyle=solid;fillColor=default;fontStyle=2" vertex="1" parent="1"><mxGeometry x="280" y="1350" width="120" height="60" as="geometry"/></mxCell><mxCell id="73" value="Accepted" style="rounded=1;whiteSpace=wrap;html=1;fillStyle=solid;fillColor=default;fontStyle=2;fontSize=12;" vertex="1" parent="1"><mxGeometry x="120" y="1350" width="120" height="60" as="geometry"/></mxCell><mxCell id="76" value="new Bids can be proposed" style="text;html=1;align=center;verticalAlign=middle;resizable=0;points=[];autosize=1;strokeColor=none;fillColor=none;fontSize=12;" vertex="1" parent="1"><mxGeometry x="280" y="745" width="160" height="30" as="geometry"/></mxCell></root></mxGraphModel></diagram></mxfile>
